<svg xmlns="http://www.w3.org/2000/svg" width="797.96" height="530.973" viewBox="0 0 797.96 530.973"><path fill="#d4001c" d="M0 0h797.96v530.973H0z"/><g fill="#fddd00"><path d="m184.195 267 9.126 7.138c14.632 11.443 38.501 35.909 45.015 77.3l1.721 10.924 8.361-7.312c14.038-12.277 55.754-44.434 116.757-53.224-8.792 61.003-40.948 102.718-53.224 116.756l-7.313 8.361 10.924 1.721c41.392 6.515 65.857 30.383 77.301 45.015l7.137 9.126 7.138-9.126c11.443-14.632 35.908-38.5 77.3-45.015l10.924-1.721-7.313-8.361c-12.276-14.038-44.432-55.753-53.224-116.756 61.003 8.79 102.719 40.947 116.757 53.224l8.361 7.312 1.72-10.924c6.515-41.391 30.384-65.857 45.015-77.3l9.127-7.138-9.127-7.138c-14.631-11.443-38.5-35.908-45.015-77.299l-1.72-10.925-8.361 7.312c-14.038 12.277-55.754 44.434-116.757 53.225 8.792-61.003 40.948-102.719 53.224-116.756l7.313-8.362-10.924-1.72c-41.392-6.516-65.857-30.384-77.3-45.016L400 51.195l-7.137 9.126c-11.444 14.632-35.909 38.5-77.301 45.016l-10.924 1.72 7.313 8.362c12.276 14.037 44.432 55.753 53.224 116.756-61.003-8.791-102.719-40.948-116.757-53.225l-8.361-7.312-1.721 10.925c-6.514 41.391-30.383 65.856-45.015 77.299zm35.126 0c27.829-25.798 34.255-54.425 34.255-54.425 40.626 34.242 103.986 41.96 135.665 43.666-1.707-31.679-9.424-95.039-43.666-135.666 0 0 28.626-6.425 54.425-34.255 25.799 27.83 54.425 34.255 54.425 34.255-34.242 40.627-41.959 103.987-43.666 135.666 31.679-1.706 95.039-9.424 135.665-43.666 0 0 6.426 28.627 34.255 54.425-27.829 25.799-34.255 54.425-34.255 54.425-40.626-34.242-103.986-41.96-135.665-43.666 1.707 31.679 9.424 95.039 43.666 135.666 0 0-28.626 6.425-54.425 34.255-25.799-27.83-54.425-34.255-54.425-34.255 34.242-40.627 41.959-103.987 43.666-135.666-31.679 1.706-95.039 9.424-135.665 43.666 0 0-6.426-28.626-34.255-54.425"/><circle cx="176.775" cy="267" r="18"/><circle cx="237.575" cy="164.576" r="18"/><circle cx="237.575" cy="369.425" r="18"/><circle cx="297.576" cy="104.575" r="18"/><circle cx="297.576" cy="429.426" r="18"/><circle cx="400" cy="43.774" r="18"/><circle cx="400" cy="490.226" r="18"/><circle cx="502.424" cy="104.575" r="18"/><circle cx="502.424" cy="429.426" r="18"/><circle cx="562.425" cy="164.576" r="18"/><circle cx="562.425" cy="369.425" r="18"/><circle cx="623.226" cy="267" r="18"/></g></svg>